<?xml version="1.0" encoding="UTF-8"?>
<svg id="Camada_1" data-name="Camada 1" xmlns="http://www.w3.org/2000/svg" viewBox="0 0 259.91 324.7">
  <defs>
    <style>
      .cls-1 {
        fill: #3d71b7;
        stroke-width: 0px;
      }
    </style>
  </defs>
  <path class="cls-1" d="m259.91,324.7h-71.35l-24.77-35.25-58.69-90.38h-4.82l-.06-.08h-40.77v125.71H0v-174.59c2.17-.27,4.33-.53,6.49-.86h82.33c13.59,0,25.12-.61,34.58-1.82,9.46-1.22,17.43-3.04,23.9-5.47,11.98-4.52,20.27-10.71,24.88-18.56,4.61-7.85,6.91-16.87,6.91-27.06,0-8.73-1.82-16.46-5.46-23.17-3.64-6.72-9.82-12.02-18.56-15.9-5.67-2.58-12.78-4.49-21.36-5.7-8.57-1.21-19.17-1.82-31.79-1.82H8.13L0,37.23V0h98.77c16.34,0,31.55.93,45.62,2.79,14.08,1.86,26.13,4.65,36.16,8.37,19.09,7.28,33.81,18.08,44.17,32.4,10.35,14.32,15.53,32.32,15.53,54s-6.27,41.86-18.81,57.63c-12.54,15.77-31.91,27.46-58.12,35.07v.97l5.67,7.84,20.03,27.67,70.89,97.96Z"/>
</svg>